<svg xmlns="http://www.w3.org/2000/svg" width="16" height="16" viewBox="0 0 16 16" fill="none">
	<path fill-rule="evenodd" clip-rule="evenodd" d="M8.00016 14.6667C2.51016 14.6667 1.3335 13.49 1.3335 8C1.3335 2.51 2.51016 1.33334 8.00016 1.33334C13.4902 1.33334 14.6668 2.51 14.6668 8C14.6668 13.49 13.4902 14.6667 8.00016 14.6667ZM5.22239 8C5.52921 8 5.77794 8.24873 5.77794 8.55556V10.7778C5.77794 11.0846 5.52921 11.3333 5.22239 11.3333C4.91556 11.3333 4.66683 11.0846 4.66683 10.7778V8.55556C4.66683 8.24873 4.91556 8 5.22239 8ZM8.55572 5.22222C8.55572 4.9154 8.30699 4.66667 8.00016 4.66667C7.69334 4.66667 7.44461 4.9154 7.44461 5.22222V10.7778C7.44461 11.0846 7.69334 11.3333 8.00016 11.3333C8.30699 11.3333 8.55572 11.0846 8.55572 10.7778V5.22222ZM10.7779 6.88889C11.0848 6.88889 11.3335 7.13762 11.3335 7.44445V10.7778C11.3335 11.0846 11.0848 11.3333 10.7779 11.3333C10.4711 11.3333 10.2224 11.0846 10.2224 10.7778V7.44445C10.2224 7.13762 10.4711 6.88889 10.7779 6.88889Z" fill="currentColor" />
</svg>
