<svg xmlns="http://www.w3.org/2000/svg" width="20" height="20" viewBox="0 0 20 20" fill="none">
	<path fill-rule="evenodd" clip-rule="evenodd" d="M1.81824 10.0001C1.81824 16.0768 2.45155 16.253 7.27049 17.5938C7.60617 17.6872 7.96249 17.7863 8.33998 17.8934C11.5184 18.795 13.172 18.2892 14.0173 16.5769C14.9119 16.5696 15.6702 16.5185 16.2852 16.3527C16.9995 16.1601 17.5444 15.806 17.8991 15.212C18.2259 14.6649 18.3572 13.9668 18.4208 13.151C18.4849 12.3297 18.4849 11.2935 18.4849 10.0204V9.97047C18.4849 8.69744 18.4849 7.66174 18.4208 6.84129C18.3572 6.02637 18.2259 5.32912 17.8987 4.78286C17.5434 4.18956 16.9979 3.83709 16.2841 3.64574C15.6695 3.48098 14.9115 3.43043 14.0173 3.42325C13.1719 1.711 11.5184 1.20517 8.33998 2.10675C7.96241 2.21385 7.60637 2.31291 7.27063 2.40632C2.45156 3.74707 1.81824 3.92328 1.81824 10.0001ZM15.8726 15.0916C15.5366 15.1822 15.0877 15.2325 14.4706 15.2523C14.7831 13.9062 14.8617 12.1409 14.8617 10.0001C14.8617 7.85914 14.7831 6.09384 14.4705 4.74774C15.0881 4.76734 15.5373 4.81727 15.8736 4.90742C16.2807 5.01655 16.4825 5.17255 16.6254 5.41116C16.7965 5.69682 16.9143 6.15495 16.9752 6.93435C17.0352 7.70285 17.0356 8.69227 17.0356 9.99545C17.0356 11.2986 17.0352 12.2886 16.9752 13.0581C16.9143 13.8383 16.7965 14.2979 16.625 14.585C16.4816 14.8252 16.2792 14.9819 15.8726 15.0916ZM11.2385 10.6579C10.8383 10.6579 10.5139 10.3634 10.5139 10.0001C10.5139 9.6368 10.8383 9.34231 11.2385 9.34231C11.6387 9.34231 11.9632 9.6368 11.9632 10.0001C11.9632 10.3634 11.6387 10.6579 11.2385 10.6579Z" fill="#333639" />
</svg>
