<svg xmlns="http://www.w3.org/2000/svg" width="24" height="24" viewBox="0 0 24 24" fill="none">
	<path fill-rule="evenodd" clip-rule="evenodd" d="M15.0652 18.6923C14.3241 19.4 13.343 19.7845 12.3008 19.7778H12.2997C11.2586 19.7689 10.2841 19.3678 9.55524 18.6489C8.05636 17.1723 8.07636 14.7856 9.60079 13.3312L12.0041 11.0334C12.103 10.939 12.2363 10.8879 12.3763 10.889C12.5152 10.8901 12.6485 10.9434 12.7452 11.039L15.1107 13.3734C16.6096 14.8512 16.5896 17.2367 15.0652 18.6923ZM18.2285 7.54012L13.1252 2.32794C12.7008 1.8935 11.993 1.8935 11.553 2.31128C11.3152 2.53794 11.1886 2.85905 11.2097 3.18683C11.2197 3.34238 11.2197 3.49571 11.2197 3.66016C11.2197 6.50124 10.5052 8.18123 10.1108 8.59678C9.94301 8.41234 9.63857 7.9279 9.38191 6.93791C9.28191 6.55124 8.98191 6.24791 8.59636 6.14347C8.20858 6.04125 7.79747 6.15125 7.51637 6.43458L6.42304 7.5379C3.18862 10.8345 3.19307 16.2056 6.43193 19.5067C8.00192 21.1133 10.0941 21.9978 12.3241 22H12.333C14.5652 22 16.6618 21.1156 18.2385 19.5078C21.4796 16.2056 21.474 10.8345 18.2285 7.54012Z" fill="#D92D20" />
</svg>
