<svg width="24" height="24" viewBox="0 0 24 24" fill="none" xmlns="http://www.w3.org/2000/svg">
<g id="hourglass">
<path id="Vector" d="M6.68454 22H17.2329C18.3412 22 19.0035 21.3919 19.0035 20.2187V19.9359C19.0147 16.9374 15.821 14.5039 14.4193 13.1787C14.0281 12.8093 13.8218 12.4728 13.8218 11.9838C13.8218 11.4948 14.0281 11.1689 14.4198 10.7888C15.8103 9.44136 19.004 7.16038 19.004 4.04227V3.78177C19.004 2.60814 18.3412 2 17.2333 2H6.68408C5.59758 2 5.00011 2.60814 5.00011 3.68397V4.04227C5.00011 7.16038 8.19377 9.44136 9.59545 10.7888C9.98666 11.1689 10.1929 11.4948 10.1929 11.9838C10.1929 12.4728 9.98666 12.8093 9.59499 13.1787C8.19377 14.5044 5.00011 16.9379 5.00011 19.9359V20.316C5.00011 21.3914 5.59758 22 6.68408 22M7.81368 20.5121C7.29222 20.5121 7.12952 19.9359 7.63986 19.5559L11.3554 16.7854C11.475 16.6881 11.5399 16.6227 11.5399 16.4595V11.2343C11.5399 10.6474 11.4203 10.354 11.0078 10.0064C10.3885 9.48493 9.21537 8.6594 8.68278 7.90989C8.46539 7.60582 8.48717 7.35598 8.7588 7.35598H15.2444C15.516 7.35598 15.5378 7.60582 15.3204 7.90989C14.7883 8.6594 13.6258 9.48493 12.9958 10.0064C12.5833 10.354 12.4633 10.6474 12.4633 11.2343V16.4591C12.4633 16.6222 12.5286 16.6871 12.6482 16.7849L16.3744 19.5554C16.8848 19.9355 16.711 20.5112 16.2006 20.5112L7.81368 20.5121Z" fill="#DC6803"/>
</g>
</svg>
