<svg xmlns="http://www.w3.org/2000/svg" width="20" height="20" viewBox="0 0 20 20" fill="none">
	<path d="M6.52775 7.9165C6.52775 7.14944 7.14958 6.52762 7.91664 6.52762C8.6837 6.52762 9.30553 7.14944 9.30553 7.9165C9.30553 8.68357 8.6837 9.30539 7.91664 9.30539C7.14958 9.30539 6.52775 8.68357 6.52775 7.9165Z" fill="#333639" />
	<path fill-rule="evenodd" clip-rule="evenodd" d="M2.48207 14.4399C2.3287 14.5822 2.07837 14.5166 2.03026 14.3131C1.76517 13.1912 1.66663 11.7762 1.66663 9.99984C1.66663 3.13734 3.13746 1.6665 9.99996 1.6665C16.8625 1.6665 18.3333 3.13734 18.3333 9.99984C18.3333 10.0228 18.3333 10.0456 18.3332 10.0684C18.3332 10.071 18.3306 10.0727 18.3283 10.0716C17.8894 9.87168 17.2668 9.63822 16.5409 9.51379C15.0698 9.26161 13.1502 9.46206 11.5607 11.2787C10.2014 12.8321 9.61528 12.9557 9.17592 12.9278C8.94066 12.9129 8.71551 12.8537 8.38522 12.7668C8.28549 12.7405 8.17617 12.7118 8.0541 12.6809C7.55903 12.5559 6.95476 12.4304 6.18053 12.4304C5.57596 12.4304 4.97662 12.6667 4.4616 12.9508C3.9355 13.2411 3.43048 13.619 2.99884 13.9825C2.81462 14.1377 2.6411 14.2924 2.48207 14.4399ZM5.13886 7.9165C5.13886 6.38238 6.38252 5.13873 7.91664 5.13873C9.45077 5.13873 10.6944 6.38238 10.6944 7.9165C10.6944 9.45063 9.45077 10.6943 7.91664 10.6943C6.38252 10.6943 5.13886 9.45063 5.13886 7.9165Z" fill="#333639" />
	<path d="M2.91028 15.9613C2.82042 16.0532 2.80694 16.1959 2.88287 16.2996C4.03958 17.8793 6.18793 18.3332 9.99996 18.3332C16.2785 18.3332 18.0439 17.102 18.2989 11.6371C18.2993 11.6281 18.2949 11.6193 18.2873 11.6146L18.2766 11.6081C18.2544 11.5946 18.2189 11.5735 18.1713 11.5468C18.076 11.4934 17.9333 11.4179 17.7524 11.3355C17.3884 11.1697 16.8825 10.9815 16.3063 10.8827C15.1732 10.6885 13.7942 10.8352 12.6059 12.1932C11.1874 13.8144 10.2111 14.3852 9.08792 14.3139C8.70386 14.2895 8.30858 14.1845 7.95627 14.0909C7.8729 14.0687 7.79193 14.0472 7.71408 14.0276C7.27599 13.917 6.79519 13.8193 6.18053 13.8193C5.91705 13.8193 5.56152 13.9302 5.13254 14.1669C4.71463 14.3975 4.28648 14.714 3.89347 15.0449C3.50287 15.3738 3.16141 15.7048 2.91695 15.9544C2.91472 15.9567 2.9125 15.959 2.91028 15.9613Z" fill="#333639" />
</svg>
