<svg xmlns="http://www.w3.org/2000/svg" width="20" height="20" viewBox="0 0 20 20" fill="none">
	<path fill-rule="evenodd" clip-rule="evenodd" d="M9.26108 0.0873699C9.74823 -0.0291233 10.2518 -0.0291233 10.7389 0.0873699C11.6366 0.302024 13.4304 0.812829 15.6623 1.87564C17.4006 2.70338 18.6045 3.42192 19.3468 3.90983C20.2178 4.48242 20.2178 5.70602 19.3468 6.27856C18.6045 6.76652 17.4006 7.48505 15.6623 8.31275C13.4304 9.37559 11.6366 9.88638 10.7389 10.1011C10.2518 10.2175 9.74823 10.2175 9.26108 10.1011C8.36339 9.88638 6.56962 9.37559 4.33773 8.31275C2.59947 7.48505 1.3955 6.76652 0.653236 6.27856C-0.217747 5.70602 -0.217743 4.48242 0.653236 3.90983C1.3955 3.42192 2.59947 2.70338 4.33773 1.87564C6.56962 0.812834 8.36339 0.302024 9.26108 0.0873699ZM1.07586 8.1172C1.78483 8.53011 2.67426 9.00858 3.76017 9.52564C6.09209 10.6361 7.97748 11.1754 8.94865 11.4076C9.64121 11.5732 10.3588 11.5732 11.0514 11.4076C12.0225 11.1754 13.9079 10.6361 16.2399 9.52564C17.3257 9.00858 18.2152 8.53011 18.9242 8.1172C19.0788 8.21375 19.2196 8.30415 19.3468 8.38776C20.2178 8.96035 20.2178 10.1839 19.3468 10.7565C18.6045 11.2444 17.4006 11.9629 15.6623 12.7907C13.4304 13.8535 11.6366 14.3643 10.7389 14.579C10.2518 14.6954 9.74823 14.6954 9.26108 14.579C8.36339 14.3643 6.56962 13.8535 4.33773 12.7907C2.59947 11.9629 1.3955 11.2444 0.653236 10.7565C-0.217747 10.1839 -0.217743 8.96035 0.653236 8.38776C0.780431 8.30415 0.921181 8.21375 1.07586 8.1172ZM1.07586 12.5951C1.78483 13.008 2.67426 13.4865 3.76017 14.0036C6.09209 15.114 7.97748 15.6533 8.94865 15.8855C9.64121 16.0511 10.3588 16.0511 11.0514 15.8855C12.0225 15.6533 13.9079 15.114 16.2399 14.0036C17.3257 13.4865 18.2152 13.008 18.9242 12.5951C19.0788 12.6917 19.2196 12.7821 19.3468 12.8657C20.2178 13.4383 20.2178 14.6619 19.3468 15.2344C18.6045 15.7224 17.4006 16.4409 15.6623 17.2686C13.4304 18.3314 11.6366 18.8422 10.7389 19.0569C10.2518 19.1734 9.74823 19.1734 9.26108 19.0569C8.36339 18.8422 6.56962 18.3314 4.33773 17.2686C2.59947 16.4409 1.3955 15.7223 0.653236 15.2344C-0.217747 14.6618 -0.217743 13.4383 0.653236 12.8657C0.780431 12.7821 0.921181 12.6917 1.07586 12.5951Z" fill="#787E85" />
</svg>
