<svg width="24" height="24" viewBox="0 0 24 24" fill="none" xmlns="http://www.w3.org/2000/svg">
<g id="rocket-launch">
<g id="Union">
<path fill-rule="evenodd" clip-rule="evenodd" d="M9.44286 7.79396C12.1863 4.26948 16.471 2.0002 21.2857 2C21.4751 1.99999 21.6568 2.07524 21.7908 2.2092C21.9248 2.34315 22 2.52484 22 2.71429C22 7.52918 19.7307 11.8143 16.2062 14.558C16.2586 14.8884 16.2857 15.227 16.2857 15.5714C16.2857 19.1218 13.4075 22 9.85714 22C9.46265 22 9.14286 21.6802 9.14286 21.2857V17.3509C9.13405 17.3446 9.12536 17.338 9.1168 17.3312C8.21012 16.6123 7.38857 15.7907 6.66964 14.884C6.66264 14.8752 6.65586 14.8662 6.64932 14.8571H2.71429C2.3198 14.8571 2 14.5373 2 14.1429C2 10.5925 4.87817 7.71429 8.42857 7.71429C8.77331 7.71429 9.11212 7.74149 9.44286 7.79396ZM14.8571 7C13.6737 7 12.7143 7.95939 12.7143 9.14286C12.7143 10.3263 13.6737 11.2857 14.8571 11.2857C16.0406 11.2857 17 10.3263 17 9.14286C17 7.95939 16.0406 7 14.8571 7Z" fill="#039855"/>
<path d="M5.5813 16.9922C5.8975 16.7563 5.96261 16.3088 5.72673 15.9926C5.49085 15.6764 5.0433 15.6113 4.7271 15.8472C3.50675 16.7575 2.71429 18.2148 2.71429 19.8571C2.71429 20.1195 2.73457 20.3777 2.77377 20.63C2.82151 20.9373 3.06261 21.1784 3.36993 21.2262C3.62225 21.2654 3.88043 21.2856 4.14286 21.2856C5.78509 21.2856 7.2424 20.4932 8.15276 19.2728C8.38864 18.9566 8.32353 18.5091 8.00733 18.2732C7.69114 18.0373 7.24359 18.1024 7.00771 18.4186C6.35537 19.2931 5.31506 19.8571 4.14286 19.8571C4.14286 18.6849 4.70684 17.6446 5.5813 16.9922Z" fill="#039855"/>
</g>
</g>
</svg>
