<svg xmlns="http://www.w3.org/2000/svg" width="19" height="22" viewBox="0 0 19 22" fill="none">
	<path d="M9.4758 14.9836C9.4758 19.3929 9.72503 20.5652 9.72503 20.5652H4.94246C4.54623 20.5652 4.22507 20.8864 4.22507 21.2826C4.22507 21.6788 4.54623 22 4.94246 22H13.5512C13.9474 22 14.2686 21.6788 14.2686 21.2826C14.2686 20.8864 13.9474 20.5652 13.5512 20.5652H11.1598C11.1598 20.5652 11.0593 20.0924 10.9859 18.6181C12.2188 18.5704 13.3541 18.4776 14.3352 18.372C16.8259 18.1041 18.7582 15.9834 18.4638 13.4099C18.0742 10.0051 16.927 6.70378 15.3347 4.2343C13.7652 1.80031 11.6403 0 9.24672 0C6.8531 0 4.72826 1.80031 3.15879 4.2343C1.56641 6.70378 0.419224 10.0051 0.0296871 13.4099C-0.264722 15.9834 1.66762 18.1041 4.15824 18.372C5.26484 18.491 6.56758 18.5938 7.98509 18.6341C8.01905 17.9571 8.04729 17.0672 8.05735 15.9124C7.72473 15.5936 7.14522 15.0306 6.28631 14.1717C5.42001 13.3054 4.85482 12.7233 4.53744 12.3922C4.33391 12.1797 4.25295 11.8772 4.43488 11.646C4.47907 11.5899 4.53197 11.5296 4.59539 11.4662C4.65876 11.4028 4.71905 11.3499 4.77517 11.3058C5.00639 11.1238 5.30889 11.2048 5.52132 11.4083C5.85249 11.7257 6.43457 12.2909 7.30082 13.1572C7.58629 13.4426 7.83908 13.6972 8.06104 13.9221C8.06006 11.4313 8.05581 9.90206 8.05323 9.18121C8.05202 8.85865 8.15683 8.51583 8.46377 8.41673C8.55174 8.38834 8.65342 8.36954 8.76851 8.36954C8.88371 8.36954 8.98538 8.38834 9.07326 8.41673C9.38025 8.51583 9.48501 8.85865 9.48384 9.18116C9.48253 9.55751 9.48071 10.1541 9.47912 10.9928C9.68658 10.7828 9.91991 10.548 10.1804 10.2876C11.0466 9.42132 11.6287 8.85608 11.9599 8.5387C12.1723 8.33517 12.4748 8.25426 12.7061 8.43619C12.7621 8.48038 12.8224 8.53328 12.8858 8.5967C12.9492 8.66007 13.0021 8.72031 13.0463 8.77648C13.2282 9.00765 13.1473 9.31015 12.9437 9.52262C12.6264 9.85375 12.0612 10.4358 11.1949 11.3021C10.3797 12.1173 9.81623 12.6659 9.47659 12.9923C9.47612 13.5885 9.4758 14.2513 9.4758 14.9836Z" fill="#12B76A" />
</svg>
